<svg height="5in" viewBox="0 0 360 360" width="5in" xmlns="http://www.w3.org/2000/svg"><g fill="#050706"><g opacity=".2"><path d="m212.2 31.2-32.1 71.2a7.4 7.4 0 0 0 -.9 6.9 6.5 6.5 0 0 0 6.7 4.1c1.6-.3 40.7-14.9 40.7-14.9s2-.2 2.3-4.2c.1-2.1.1-4.3 0-6.4 0 0 .1-2.4-2.9-1.4s-33.1 12.5-33.1 12.5l26.8-57.9a5.1 5.1 0 0 0 -.3-4.8c-1.4-2.7-4.1-7.6-5.7-7.1s-1.5 2-1.5 2z"/><path d="m104.6 31.4-32.1 71.2a7.4 7.4 0 0 0 -.8 6.9 6.1 6.1 0 0 0 6.6 4.1c1.6-.3 40.7-14.9 40.7-14.9s2-.2 2.3-4.2a34.2 34.2 0 0 0 0-6.4s.2-2.4-2.8-1.4-33.1 12.5-33.1 12.5l26.7-57.9a5.2 5.2 0 0 0 -.2-4.7c-1.5-2.8-4.2-7.7-5.7-7.2s-1.6 2-1.6 2z"/><path d="m217.4 82.5s-2.3.4-1-2.3 3.9-7.2 3.9-7.2.5-1.7 3.2-2.5l3.7-1.1 22.4-43.8s1.3-3 2.6-1.9 6.5 6.8 6.5 9.2v23.3l14.7-6.1s2.2-1.1 1.7.5-3.3 11.1-3.3 11.1-.3 1.1-4.1 2.3l-10.3 3.7-.5 36.9s0 2.8-2.7 2.7-7.1-1-7.8-1.7-.9-.9-.8-2.7 1-31.3 1-31.3zm31.6-35.9-8.4 17.2 7.8-3.6z"/><path d="m161.7 97.3c23.6-17 26.7-32.8 28.1-37.9s5.6-25.9-20.2-24.6-46.5 21.8-46.5 21.8-3.6 2-3.1 12.8 7.1-5.2 21.3-14.2c16.2-10.1 31.8-14.9 37.3-8.1s-5.2 28.8-21 40.8c0 0-16.2 10.5-17.1 3.1s3.7-23.4 15.1-35.5c0 0 1.1-2-3.2-1.6s-10.3 1.8-12.1 4.5-13.7 20-12.6 32.8 8.3 14.9 16.4 13.5 17.6-7.4 17.6-7.4z"/></g><g opacity=".4"><path d="m212.2 83.4-32.1 71.2a7.4 7.4 0 0 0 -.9 6.9 6.2 6.2 0 0 0 6.7 4.1c1.6-.3 40.7-14.9 40.7-14.9s2-.2 2.3-4.2c.1-2.1.1-4.2 0-6.4 0 0 .1-2.4-2.9-1.4s-33.1 12.5-33.1 12.5l26.8-57.9a4.9 4.9 0 0 0 -.3-4.7c-1.4-2.8-4.1-7.7-5.7-7.2s-1.5 2-1.5 2z"/><path d="m104.6 83.6-32.1 71.3a7.2 7.2 0 0 0 -.8 6.8 6.1 6.1 0 0 0 6.6 4.1c1.6-.3 40.7-14.9 40.7-14.9s2-.2 2.3-4.2a33.1 33.1 0 0 0 0-6.3s.2-2.5-2.8-1.5-33.1 12.6-33.1 12.6l26.7-57.9a5.4 5.4 0 0 0 -.2-4.8c-1.5-2.7-4.2-7.6-5.7-7.1s-1.6 1.9-1.6 1.9z"/><path d="m217.4 134.7s-2.3.4-1-2.3 3.9-7.2 3.9-7.2.5-1.7 3.2-2.5l3.7-1 22.4-43.9s1.3-2.9 2.6-1.9 6.5 6.9 6.5 9.2v23.3l14.7-6.1s2.2-1.1 1.7.6-3.3 11.1-3.3 11.1-.3 1-4.1 2.2-10.3 3.8-10.3 3.8l-.5 36.8s0 2.8-2.7 2.7-7.1-1-7.8-1.7-.9-.9-.8-2.6 1-31.4 1-31.4zm31.6-35.9-8.4 17.2 7.8-3.6z"/><path d="m161.7 149.5c23.6-17 26.7-32.8 28.1-37.8s5.6-26-20.2-24.6-46.5 21.7-46.5 21.7-3.6 2-3.1 12.8 7.1-5.2 21.3-14.1c16.2-10.2 31.8-15 37.3-8.2s-5.2 28.8-21 40.8c0 0-16.2 10.5-17.1 3.1s3.7-23.4 15.1-35.5c0 0 1.1-2-3.2-1.6s-10.3 1.8-12.1 4.5-13.7 20-12.6 32.8 8.3 14.9 16.4 13.5 17.6-7.4 17.6-7.4z"/></g><g opacity=".6"><path d="m212.2 136.4-32.1 71.2a7.4 7.4 0 0 0 -.9 6.9 6.5 6.5 0 0 0 6.7 4.1c1.6-.4 40.7-15 40.7-15s2-.2 2.3-4.1c.1-2.2.1-4.3 0-6.4 0 0 .1-2.4-2.9-1.4s-33.1 12.5-33.1 12.5l26.8-57.9a5.1 5.1 0 0 0 -.3-4.8c-1.4-2.7-4.1-7.6-5.7-7.1s-1.5 2-1.5 2z"/><path d="m104.6 136.6-32.1 71.2a7.4 7.4 0 0 0 -.8 6.9 6.3 6.3 0 0 0 6.6 4.1c1.6-.4 40.7-14.9 40.7-14.9s2-.2 2.3-4.2a34.2 34.2 0 0 0 0-6.4s.2-2.4-2.8-1.4-33.1 12.5-33.1 12.5l26.7-57.9a5.4 5.4 0 0 0 -.2-4.8c-1.5-2.7-4.2-7.6-5.7-7.1s-1.6 2-1.6 2z"/><path d="m217.4 187.7s-2.3.4-1-2.4 3.9-7.1 3.9-7.1.5-1.8 3.2-2.5l3.7-1.1 22.4-43.9s1.3-2.9 2.6-1.9 6.5 6.9 6.5 9.3v23.3l14.7-6.1s2.2-1.1 1.7.5-3.3 11.1-3.3 11.1-.3 1-4.1 2.3l-10.3 3.7-.5 36.9s0 2.8-2.7 2.7-7.1-1-7.8-1.8-.9-.8-.8-2.6 1-31.3 1-31.3zm31.6-35.9-8.4 17.1 7.8-3.6z"/><path d="m161.7 202.4c23.6-16.9 26.7-32.7 28.1-37.8s5.6-25.9-20.2-24.6-46.5 21.7-46.5 21.7-3.6 2.1-3.1 12.9 7.1-5.3 21.3-14.2c16.2-10.2 31.8-14.9 37.3-8.1s-5.2 28.8-21 40.7c0 0-16.2 10.6-17.1 3.2s3.7-23.4 15.1-35.5c0 0 1.1-2.1-3.2-1.6s-10.3 1.8-12.1 4.5-13.7 20-12.6 32.8 8.3 14.8 16.4 13.5 17.6-7.5 17.6-7.5z"/></g><g opacity=".8"><path d="m212.2 188.6-32.1 71.2a7.4 7.4 0 0 0 -.9 6.9 6.5 6.5 0 0 0 6.7 4.1c1.6-.4 40.7-14.9 40.7-14.9s2-.2 2.3-4.2c.1-2.1.1-4.3 0-6.4 0 0 .1-2.4-2.9-1.4s-33.1 12.5-33.1 12.5l26.8-57.9a5.1 5.1 0 0 0 -.3-4.8c-1.4-2.7-4.1-7.6-5.7-7.1s-1.5 2-1.5 2z"/><path d="m104.6 188.8-32.1 71.2a7.4 7.4 0 0 0 -.8 6.9 6.1 6.1 0 0 0 6.6 4.1c1.6-.3 40.7-14.9 40.7-14.9s2-.2 2.3-4.2a34.2 34.2 0 0 0 0-6.4s.2-2.4-2.8-1.4-33.1 12.5-33.1 12.5l26.7-57.9a5.4 5.4 0 0 0 -.2-4.8c-1.5-2.7-4.2-7.6-5.7-7.1s-1.6 2-1.6 2z"/><path d="m217.4 239.9s-2.3.4-1-2.4 3.9-7.1 3.9-7.1.5-1.7 3.2-2.5l3.7-1.1 22.4-43.8s1.3-3 2.6-1.9 6.5 6.8 6.5 9.2v23.3l14.7-6.1s2.2-1.1 1.7.5-3.3 11.1-3.3 11.1-.3 1.1-4.1 2.3l-10.3 3.7-.5 36.9s0 2.8-2.7 2.7-7.1-1-7.8-1.8-.9-.8-.8-2.6 1-31.3 1-31.3zm31.6-35.9-8.4 17.2 7.8-3.6z"/><path d="m161.7 254.6c23.6-16.9 26.7-32.7 28.1-37.8s5.6-25.9-20.2-24.6-46.5 21.7-46.5 21.7-3.6 2.1-3.1 12.9 7.1-5.2 21.3-14.2c16.2-10.1 31.8-14.9 37.3-8.1s-5.2 28.8-21 40.8c0 0-16.2 10.5-17.1 3.1s3.7-23.4 15.1-35.5c0 0 1.1-2-3.2-1.6s-10.3 1.8-12.1 4.5-13.7 20-12.6 32.8 8.3 14.9 16.4 13.5 17.6-7.5 17.6-7.5z"/></g><path d="m212.2 240.8-32.1 71.2a7.4 7.4 0 0 0 -.9 6.9 6.2 6.2 0 0 0 6.7 4.1c1.6-.3 40.7-14.9 40.7-14.9s2-.2 2.3-4.2c.1-2.1.1-4.2 0-6.4 0 0 .1-2.4-2.9-1.4s-33.1 12.5-33.1 12.5l26.8-57.9a5.1 5.1 0 0 0 -.3-4.8c-1.4-2.7-4.1-7.6-5.7-7.1s-1.5 2-1.5 2z"/><path d="m104.6 241-32.1 71.2a7.4 7.4 0 0 0 -.8 6.9 6.1 6.1 0 0 0 6.6 4.1c1.6-.3 40.7-14.9 40.7-14.9s2-.2 2.3-4.2a33.1 33.1 0 0 0 0-6.3s.2-2.5-2.8-1.5-33.1 12.6-33.1 12.6l26.7-58a5.2 5.2 0 0 0 -.2-4.7c-1.5-2.7-4.2-7.6-5.7-7.1s-1.6 1.9-1.6 1.9z"/><path d="m217.4 292.1s-2.3.4-1-2.3 3.9-7.2 3.9-7.2.5-1.7 3.2-2.5l3.7-1.1 22.4-43.8s1.3-2.9 2.6-1.9 6.5 6.8 6.5 9.2v23.3l14.7-6.1s2.2-1.1 1.7.6-3.3 11-3.3 11-.3 1.1-4.1 2.3l-10.3 3.7-.5 36.9s0 2.8-2.7 2.7-7.1-1-7.8-1.7-.9-.9-.8-2.7 1-31.3 1-31.3zm31.6-35.9-8.4 17.2 7.8-3.6z"/><path d="m161.7 306.9c23.6-17 26.7-32.8 28.1-37.9s5.6-25.9-20.2-24.6-46.5 21.8-46.5 21.8-3.6 2-3.1 12.8 7.1-5.2 21.3-14.1c16.2-10.2 31.8-15 37.3-8.2s-5.2 28.8-21 40.8c0 0-16.2 10.5-17.1 3.1s3.7-23.4 15.1-35.5c0 0 1.1-2-3.2-1.6s-10.3 1.8-12.1 4.5-13.7 20-12.6 32.8 8.3 14.9 16.4 13.5 17.6-7.4 17.6-7.4z"/></g></svg>